<svg xmlns="http://www.w3.org/2000/svg" viewBox="0 0 960 960" width="24px" height="24px"><path fill="currentColor" d="M480 640q75 0 127.5-52.5T660 460q0-75-52.5-127.5T480 280q-75 0-127.5 52.5T300 460q0 75 52.5 127.5T480 640Zm0-72q-45 0-76.5-31.5T372 460q0-45 31.5-76.5T480 352q45 0 76.5 31.5T588 460q0 45-31.5 76.5T480 568Zm0 192q-146 0-266-81.5T40 460q54-137 174-218.5T480 160q146 0 266 81.5T920 460q-54 137-174 218.5T480 760Zm0-300Zm0 220q113 0 207.5-59.5T832 460q-50-101-144.5-160.5T480 240q-113 0-207.5 59.5T128 460q50 101 144.5 160.5T480 680Z"/></svg>