<svg width="24" height="24" viewBox="0 0 24 24" fill="none" xmlns="http://www.w3.org/2000/svg">
<path d="M12.5 2.5V9.5H9C7.067 9.5 5.5 7.933 5.5 6C5.5 4.067 7.067 2.5 9 2.5H12.5ZM6.5 6C6.5 7.38071 7.61929 8.5 9 8.5H11.5V3.5H9C7.61929 3.5 6.5 4.61929 6.5 6Z" fill="currentColor"/>
<path d="M17.5 6C17.5 4.61929 16.3807 3.5 15 3.5H12.5V8.5H15C16.3807 8.5 17.5 7.38071 17.5 6ZM18.5 6C18.5 7.933 16.933 9.5 15 9.5H11.5V2.5H15C16.933 2.5 18.5 4.067 18.5 6Z" fill="currentColor"/>
<path d="M12.5 8.5V15.5H9C7.067 15.5 5.5 13.933 5.5 12C5.5 10.067 7.067 8.5 9 8.5H12.5ZM6.5 12C6.5 13.3807 7.61929 14.5 9 14.5H11.5V9.5H9C7.61929 9.5 6.5 10.6193 6.5 12Z" fill="currentColor"/>
<path d="M17.5 12C17.5 10.6193 16.3807 9.5 15 9.5C13.6193 9.5 12.5 10.6193 12.5 12C12.5 13.3807 13.6193 14.5 15 14.5C16.3807 14.5 17.5 13.3807 17.5 12ZM18.5 12C18.5 13.933 16.933 15.5 15 15.5C13.067 15.5 11.5 13.933 11.5 12C11.5 10.067 13.067 8.5 15 8.5C16.933 8.5 18.5 10.067 18.5 12Z" fill="currentColor"/>
<path d="M11.5 15.5H9C7.61929 15.5 6.5 16.6193 6.5 18C6.5 19.3807 7.61929 20.5 9 20.5C10.3807 20.5 11.5 19.3807 11.5 18V15.5ZM12.5 18C12.5 19.933 10.933 21.5 9 21.5C7.067 21.5 5.5 19.933 5.5 18C5.5 16.067 7.067 14.5 9 14.5H12.5V18Z" fill="currentColor"/>
</svg>
