<svg width="260" height="312" viewBox="0 0 260 312" fill="none" xmlns="http://www.w3.org/2000/svg">
<rect x="208.5" y="231.5" width="28" height="28" rx="3.5" stroke="#757575" stroke-dasharray="4 4"/>
<rect x="171.5" y="231.5" width="28" height="28" rx="3.5" stroke="#757575" stroke-dasharray="4 4"/>
<rect x="134.5" y="231.5" width="28" height="28" rx="3.5" stroke="#757575" stroke-dasharray="4 4"/>
<rect x="97.5" y="231.5" width="28" height="28" rx="3.5" stroke="#757575" stroke-dasharray="4 4"/>
<rect x="60.5" y="231.5" width="28" height="28" rx="3.5" stroke="#757575" stroke-dasharray="4 4"/>
<rect x="23.5" y="231.5" width="28" height="28" rx="3.5" stroke="#757575" stroke-dasharray="4 4"/>
<rect x="208.5" y="186.5" width="28" height="28" rx="3.5" stroke="#757575" stroke-dasharray="4 4"/>
<rect x="171.5" y="186.5" width="28" height="28" rx="3.5" stroke="#757575" stroke-dasharray="4 4"/>
<rect x="134.5" y="186.5" width="28" height="28" rx="3.5" stroke="#757575" stroke-dasharray="4 4"/>
<rect x="97.5" y="186.5" width="28" height="28" rx="3.5" stroke="#757575" stroke-dasharray="4 4"/>
<rect x="60.5" y="186.5" width="28" height="28" rx="3.5" stroke="#757575" stroke-dasharray="4 4"/>
<rect x="23.5" y="186.5" width="28" height="28" rx="3.5" stroke="#757575" stroke-dasharray="4 4"/>
<rect x="208.5" y="141.5" width="28" height="28" rx="3.5" stroke="#757575" stroke-dasharray="4 4"/>
<rect x="171.5" y="141.5" width="28" height="28" rx="3.5" stroke="#757575" stroke-dasharray="4 4"/>
<rect x="134.5" y="141.5" width="28" height="28" rx="3.5" stroke="#757575" stroke-dasharray="4 4"/>
<rect x="97.5" y="141.5" width="28" height="28" rx="3.5" stroke="#757575" stroke-dasharray="4 4"/>
<rect x="60.5" y="141.5" width="28" height="28" rx="3.5" stroke="#757575" stroke-dasharray="4 4"/>
<rect x="23.5" y="141.5" width="28" height="28" rx="3.5" stroke="#757575" stroke-dasharray="4 4"/>
<rect x="208.5" y="96.5" width="28" height="28" rx="3.5" stroke="#757575" stroke-dasharray="4 4"/>
<rect x="171.5" y="96.5" width="28" height="28" rx="3.5" stroke="#757575" stroke-dasharray="4 4"/>
<rect x="134.5" y="96.5" width="28" height="28" rx="3.5" stroke="#757575" stroke-dasharray="4 4"/>
<rect x="97.5" y="96.5" width="28" height="28" rx="3.5" stroke="#757575" stroke-dasharray="4 4"/>
<rect x="60.5" y="96.5" width="28" height="28" rx="3.5" stroke="#757575" stroke-dasharray="4 4"/>
<rect x="23.5" y="96.5" width="28" height="28" rx="3.5" stroke="#757575" stroke-dasharray="4 4"/>
<rect x="23" y="51" width="29" height="29" rx="4" fill="white"/>
<rect x="60" y="51" width="29" height="29" rx="4" fill="#B3D9FF"/>
<rect x="97" y="51" width="29" height="29" rx="4" fill="#7EBDFC"/>
<rect x="134" y="51" width="29" height="29" rx="4" fill="#1884F0"/>
<rect x="171" y="51" width="29" height="29" rx="4" fill="#0065CC"/>
<rect x="208" y="51" width="29" height="29" rx="4" fill="black"/>
</svg>
