<svg width="260" height="312" viewBox="0 0 260 312" fill="none" xmlns="http://www.w3.org/2000/svg">
<circle cx="229" cy="282" r="5" fill="#1F1F1F"/>
<circle cx="207" cy="282" r="5" fill="#1F1F1F"/>
<circle cx="185" cy="282" r="5" fill="#1F1F1F"/>
<circle cx="163" cy="282" r="5" fill="#1F1F1F"/>
<circle cx="141" cy="282" r="5" fill="#1F1F1F"/>
<circle cx="119" cy="282" r="5" fill="#1F1F1F"/>
<circle cx="97" cy="282" r="5" fill="#1F1F1F"/>
<circle cx="75" cy="282" r="5" fill="#1F1F1F"/>
<circle cx="53" cy="282" r="5" fill="#1F1F1F"/>
<circle cx="31" cy="282" r="5" fill="#1F1F1F"/>
<circle cx="229" cy="260" r="5" fill="#1F1F1F"/>
<circle cx="207" cy="260" r="5" fill="#1F1F1F"/>
<circle cx="185" cy="260" r="5" fill="#1F1F1F"/>
<circle cx="163" cy="260" r="5" fill="#1F1F1F"/>
<circle cx="141" cy="260" r="5" fill="#1F1F1F"/>
<circle cx="119" cy="260" r="5" fill="#1F1F1F"/>
<circle cx="97" cy="260" r="5" fill="#1F1F1F"/>
<circle cx="75" cy="260" r="5" fill="#1F1F1F"/>
<circle cx="53" cy="260" r="5" fill="#1F1F1F"/>
<circle cx="31" cy="260" r="5" fill="#1F1F1F"/>
<circle cx="229" cy="238" r="5" fill="#1F1F1F"/>
<circle cx="207" cy="238" r="5" fill="#1F1F1F"/>
<circle cx="185" cy="238" r="5" fill="#1F1F1F"/>
<circle cx="163" cy="238" r="5" fill="#1F1F1F"/>
<circle cx="141" cy="238" r="5" fill="#1F1F1F"/>
<circle cx="119" cy="238" r="5" fill="#1F1F1F"/>
<circle cx="97" cy="238" r="5" fill="#1F1F1F"/>
<circle cx="75" cy="238" r="5" fill="#1F1F1F"/>
<circle cx="53" cy="238" r="5" fill="#1F1F1F"/>
<circle cx="31" cy="238" r="5" fill="#1F1F1F"/>
<circle cx="229" cy="216" r="5" fill="#1F1F1F"/>
<circle cx="207" cy="216" r="5" fill="#1F1F1F"/>
<circle cx="185" cy="216" r="5" fill="#1F1F1F"/>
<circle cx="163" cy="216" r="5" fill="#1F1F1F"/>
<circle cx="141" cy="216" r="5" fill="#1F1F1F"/>
<circle cx="119" cy="216" r="5" fill="#1F1F1F"/>
<circle cx="97" cy="216" r="5" fill="#1F1F1F"/>
<circle cx="75" cy="216" r="5" fill="#1F1F1F"/>
<circle cx="53" cy="216" r="5" fill="#1F1F1F"/>
<circle cx="31" cy="216" r="5" fill="#1F1F1F"/>
<circle cx="229" cy="194" r="5" fill="#1F1F1F"/>
<circle cx="207" cy="194" r="5" fill="#1F1F1F"/>
<circle cx="185" cy="194" r="5" fill="#1F1F1F"/>
<circle cx="163" cy="194" r="5" fill="#1F1F1F"/>
<circle cx="141" cy="194" r="5" fill="#1F1F1F"/>
<circle cx="119" cy="194" r="5" fill="#1F1F1F"/>
<circle cx="97" cy="194" r="5" fill="#1F1F1F"/>
<circle cx="75" cy="194" r="5" fill="#1F1F1F"/>
<circle cx="53" cy="194" r="5" fill="#1F1F1F"/>
<circle cx="31" cy="194" r="5" fill="#1F1F1F"/>
<circle cx="229" cy="172" r="5" fill="#1F1F1F"/>
<circle cx="207" cy="172" r="5" fill="#1F1F1F"/>
<circle cx="185" cy="172" r="5" fill="#1F1F1F"/>
<circle cx="163" cy="172" r="5" fill="#1F1F1F"/>
<circle cx="141" cy="172" r="5" fill="#1F1F1F"/>
<circle cx="119" cy="172" r="5" fill="#1F1F1F"/>
<circle cx="97" cy="172" r="5" fill="#1F1F1F"/>
<circle cx="75" cy="172" r="5" fill="#1F1F1F"/>
<circle cx="53" cy="172" r="5" fill="#1F1F1F"/>
<circle cx="31" cy="172" r="5" fill="#1F1F1F"/>
<circle cx="229" cy="150" r="5" fill="#1F1F1F"/>
<circle cx="207" cy="150" r="5" fill="#1F1F1F"/>
<circle cx="185" cy="150" r="5" fill="#1F1F1F"/>
<circle cx="163" cy="150" r="5" fill="#1F1F1F"/>
<circle cx="141" cy="150" r="5" fill="#1F1F1F"/>
<circle cx="119" cy="150" r="5" fill="#1F1F1F"/>
<circle cx="97" cy="150" r="5" fill="#1F1F1F"/>
<circle cx="75" cy="150" r="5" fill="#1F1F1F"/>
<circle cx="53" cy="150" r="5" fill="#1F1F1F"/>
<circle cx="31" cy="150" r="5" fill="#1F1F1F"/>
<circle cx="229" cy="128" r="5" fill="#1F1F1F"/>
<circle cx="207" cy="128" r="5" fill="#1F1F1F"/>
<circle cx="185" cy="128" r="5" fill="#1F1F1F"/>
<circle cx="163" cy="128" r="5" fill="#1F1F1F"/>
<circle cx="141" cy="128" r="5" fill="#1F1F1F"/>
<circle cx="119" cy="128" r="5" fill="#1F1F1F"/>
<circle cx="97" cy="128" r="5" fill="#1F1F1F"/>
<circle cx="75" cy="128" r="5" fill="#1F1F1F"/>
<circle cx="53" cy="128" r="5" fill="#1F1F1F"/>
<circle cx="31" cy="128" r="5" fill="#CCCCCC"/>
<circle cx="229" cy="106" r="5" fill="#1F1F1F"/>
<circle cx="207" cy="106" r="5" fill="#1F1F1F"/>
<circle cx="185" cy="106" r="5" fill="#1F1F1F"/>
<circle cx="163" cy="106" r="5" fill="#1F1F1F"/>
<circle cx="141" cy="106" r="5" fill="#1F1F1F"/>
<circle cx="119" cy="106" r="5" fill="#1F1F1F"/>
<circle cx="97" cy="106" r="5" fill="#1F1F1F"/>
<circle cx="75" cy="106" r="5" fill="#1F1F1F"/>
<circle cx="53" cy="106" r="5" fill="#CFDAE6"/>
<circle cx="31" cy="106" r="5" fill="#1F1F1F"/>
<circle cx="229" cy="84" r="5" fill="#1F1F1F"/>
<circle cx="207" cy="84" r="5" fill="#1F1F1F"/>
<circle cx="185" cy="84" r="5" fill="#1F1F1F"/>
<circle cx="163" cy="84" r="5" fill="#1F1F1F"/>
<circle cx="141" cy="84" r="5" fill="#1F1F1F"/>
<circle cx="119" cy="84" r="5" fill="#1F1F1F"/>
<circle cx="97" cy="84" r="5" fill="#1F1F1F"/>
<circle cx="75" cy="84" r="5" fill="#CCE6FF"/>
<circle cx="53" cy="84" r="5" fill="#1F1F1F"/>
<circle cx="31" cy="84" r="5" fill="#1F1F1F"/>
<rect opacity="0.1" x="23" y="26" width="29" height="29" rx="4" fill="white"/>
<rect x="59" y="25" width="31" height="31" rx="5" fill="#CCCCCC" stroke="#1773CF" stroke-width="2"/>
<rect opacity="0.1" x="97" y="26" width="29" height="29" rx="4" fill="#999999"/>
<rect opacity="0.1" x="134" y="26" width="29" height="29" rx="4" fill="#666666"/>
<rect opacity="0.1" x="171" y="26" width="29" height="29" rx="4" fill="#333333"/>
<rect opacity="0.1" x="208" y="26" width="29" height="29" rx="4" fill="black"/>
<path d="M75.2236 86.3936C74.8291 85.1311 76.1431 84.0132 77.3262 84.6045L88.2695 90.0762C89.5552 90.7192 89.2771 92.5993 87.9199 92.8838L87.7852 92.9062L83.6309 93.4248C83.4769 93.4441 83.3419 93.5338 83.2637 93.665L83.2334 93.7246L81.5254 97.709C80.9937 98.9494 79.2454 98.8998 78.7588 97.6865L78.7158 97.5654L75.2236 86.3936Z" fill="black" stroke="white"/>
</svg>
