<svg width="260" height="312" viewBox="0 0 260 312" fill="none" xmlns="http://www.w3.org/2000/svg">
<circle cx="153.445" cy="196.61" r="10.6574" transform="rotate(-30 153.445 196.61)" fill="#00264D"/>
<circle cx="106.55" cy="115.39" r="10.6574" transform="rotate(-30 106.55 115.39)" fill="white"/>
<circle cx="170.609" cy="179.446" r="10.6574" transform="rotate(-30 170.609 179.446)" fill="#0252A3"/>
<circle cx="89.3864" cy="132.554" r="10.6574" transform="rotate(-30 89.3864 132.554)" fill="#E6F2FF"/>
<circle cx="176.89" cy="156" r="10.6574" transform="rotate(-30 176.89 156)" fill="#1884F0"/>
<circle cx="83.1052" cy="156" r="10.6574" transform="rotate(-30 83.1052 156)" fill="#B3D9FF"/>
<circle cx="170.609" cy="132.554" r="10.6574" transform="rotate(-30 170.609 132.554)" fill="#7EBDFC"/>
<circle cx="89.3864" cy="179.446" r="10.6574" transform="rotate(-30 89.3864 179.446)" fill="#7EBDFC"/>
<circle cx="106.55" cy="196.61" r="10.6574" transform="rotate(-30 106.55 196.61)" fill="#1884F0"/>
<circle cx="153.441" cy="115.391" r="10.6574" transform="rotate(-30 153.441 115.391)" fill="#B3D9FF"/>
<circle cx="130" cy="202.893" r="10.6574" transform="rotate(-30 130 202.893)" fill="#0252A3"/>
<circle cx="130" cy="109.108" r="10.6574" transform="rotate(-30 130 109.108)" fill="#E6F2FF"/>
<circle cx="130" cy="156" r="64" fill="#0B76E0"/>
</svg>
