<svg width="260" height="312" viewBox="0 0 260 312" fill="none" xmlns="http://www.w3.org/2000/svg">
<circle cx="229" cy="282" r="5" fill="#1F1F1F"/>
<circle cx="207" cy="282" r="5" fill="#1F1F1F"/>
<circle cx="185" cy="282" r="5" fill="#1F1F1F"/>
<circle cx="163" cy="282" r="5" fill="#1F1F1F"/>
<circle cx="141" cy="282" r="5" fill="#1F1F1F"/>
<circle cx="119" cy="282" r="5" fill="#1F1F1F"/>
<circle cx="97" cy="282" r="5" fill="#1F1F1F"/>
<circle cx="75" cy="282" r="5" fill="#1F1F1F"/>
<circle cx="53" cy="282" r="5" fill="#1F1F1F"/>
<circle cx="31" cy="282" r="5" fill="#1F1F1F"/>
<circle cx="229" cy="260" r="5" fill="#1F1F1F"/>
<circle cx="207" cy="260" r="5" fill="#1F1F1F"/>
<circle cx="185" cy="260" r="5" fill="#1F1F1F"/>
<circle cx="163" cy="260" r="5" fill="#1F1F1F"/>
<circle cx="141" cy="260" r="5" fill="#1F1F1F"/>
<circle cx="119" cy="260" r="5" fill="#1F1F1F"/>
<circle cx="97" cy="260" r="5" fill="#1F1F1F"/>
<circle cx="75" cy="260" r="5" fill="#1F1F1F"/>
<circle cx="53" cy="260" r="5" fill="#1F1F1F"/>
<circle cx="31" cy="260" r="5" fill="#1F1F1F"/>
<circle cx="229" cy="238" r="5" fill="#1F1F1F"/>
<circle cx="207" cy="238" r="5" fill="#1F1F1F"/>
<circle cx="185" cy="238" r="5" fill="#1F1F1F"/>
<circle cx="163" cy="238" r="5" fill="#1F1F1F"/>
<circle cx="141" cy="238" r="5" fill="#1F1F1F"/>
<circle cx="119" cy="238" r="5" fill="#1F1F1F"/>
<circle cx="97" cy="238" r="5" fill="#1F1F1F"/>
<circle cx="75" cy="238" r="5" fill="#1F1F1F"/>
<circle cx="53" cy="238" r="5" fill="#1F1F1F"/>
<circle cx="31" cy="238" r="5" fill="#1F1F1F"/>
<circle cx="229" cy="216" r="5" fill="#1F1F1F"/>
<circle cx="207" cy="216" r="5" fill="#1F1F1F"/>
<circle cx="185" cy="216" r="5" fill="#1F1F1F"/>
<circle cx="163" cy="216" r="5" fill="#1F1F1F"/>
<circle cx="141" cy="216" r="5" fill="#1F1F1F"/>
<circle cx="119" cy="216" r="5" fill="#1F1F1F"/>
<circle cx="97" cy="216" r="5" fill="#1F1F1F"/>
<circle cx="75" cy="216" r="5" fill="#1F1F1F"/>
<circle cx="53" cy="216" r="5" fill="#1F1F1F"/>
<circle cx="31" cy="216" r="5" fill="#1F1F1F"/>
<circle cx="229" cy="194" r="5" fill="#1F1F1F"/>
<circle cx="207" cy="194" r="5" fill="#1F1F1F"/>
<circle cx="185" cy="194" r="5" fill="#1F1F1F"/>
<circle cx="163" cy="194" r="5" fill="#1F1F1F"/>
<circle cx="141" cy="194" r="5" fill="#1F1F1F"/>
<circle cx="119" cy="194" r="5" fill="#1F1F1F"/>
<circle cx="97" cy="194" r="5" fill="#1F1F1F"/>
<circle cx="75" cy="194" r="5" fill="#1F1F1F"/>
<circle cx="53" cy="194" r="5" fill="#1F1F1F"/>
<circle cx="31" cy="194" r="5" fill="#666666"/>
<circle cx="229" cy="172" r="5" fill="#1F1F1F"/>
<circle cx="207" cy="172" r="5" fill="#1F1F1F"/>
<circle cx="185" cy="172" r="5" fill="#1F1F1F"/>
<circle cx="163" cy="172" r="5" fill="#1F1F1F"/>
<circle cx="141" cy="172" r="5" fill="#1F1F1F"/>
<circle cx="119" cy="172" r="5" fill="#1F1F1F"/>
<circle cx="97" cy="172" r="5" fill="#1F1F1F"/>
<circle cx="75" cy="172" r="5" fill="#1F1F1F"/>
<circle cx="53" cy="172" r="5" fill="#8A9199"/>
<circle cx="31" cy="172" r="5" fill="#1F1F1F"/>
<circle cx="229" cy="150" r="5" fill="#1F1F1F"/>
<circle cx="207" cy="150" r="5" fill="#1F1F1F"/>
<circle cx="185" cy="150" r="5" fill="#1F1F1F"/>
<circle cx="163" cy="150" r="5" fill="#1F1F1F"/>
<circle cx="141" cy="150" r="5" fill="#1F1F1F"/>
<circle cx="119" cy="150" r="5" fill="#1F1F1F"/>
<circle cx="97" cy="150" r="5" fill="#1F1F1F"/>
<circle cx="75" cy="150" r="5" fill="#8FA0B3"/>
<circle cx="53" cy="150" r="5" fill="#1F1F1F"/>
<circle cx="31" cy="150" r="5" fill="#1F1F1F"/>
<circle cx="229" cy="128" r="5" fill="#1F1F1F"/>
<circle cx="207" cy="128" r="5" fill="#1F1F1F"/>
<circle cx="185" cy="128" r="5" fill="#1F1F1F"/>
<circle cx="163" cy="128" r="5" fill="#1F1F1F"/>
<circle cx="141" cy="128" r="5" fill="#1F1F1F"/>
<circle cx="119" cy="128" r="5" fill="#1F1F1F"/>
<circle cx="97" cy="128" r="5" fill="#8FADCC"/>
<circle cx="75" cy="128" r="5" fill="#1F1F1F"/>
<circle cx="53" cy="128" r="5" fill="#1F1F1F"/>
<circle cx="31" cy="128" r="5" fill="#1F1F1F"/>
<circle cx="229" cy="106" r="5" fill="#1F1F1F"/>
<circle cx="207" cy="106" r="5" fill="#1F1F1F"/>
<circle cx="185" cy="106" r="5" fill="#1F1F1F"/>
<circle cx="163" cy="106" r="5" fill="#1F1F1F"/>
<circle cx="141" cy="106" r="5" fill="#1F1F1F"/>
<circle cx="119" cy="106" r="5" fill="#8AB7E6"/>
<circle cx="97" cy="106" r="5" fill="#1F1F1F"/>
<circle cx="75" cy="106" r="5" fill="#1F1F1F"/>
<circle cx="53" cy="106" r="5" fill="#1F1F1F"/>
<circle cx="31" cy="106" r="5" fill="#1F1F1F"/>
<circle cx="229" cy="84" r="5" fill="#1F1F1F"/>
<circle cx="207" cy="84" r="5" fill="#1F1F1F"/>
<circle cx="185" cy="84" r="5" fill="#1F1F1F"/>
<circle cx="163" cy="84" r="5" fill="#1F1F1F"/>
<circle cx="141" cy="84" r="5" fill="#66B3FF"/>
<circle cx="119" cy="84" r="5" fill="#1F1F1F"/>
<circle cx="97" cy="84" r="5" fill="#1F1F1F"/>
<circle cx="75" cy="84" r="5" fill="#1F1F1F"/>
<circle cx="53" cy="84" r="5" fill="#1F1F1F"/>
<circle cx="31" cy="84" r="5" fill="#1F1F1F"/>
<rect opacity="0.1" x="23" y="26" width="29" height="29" rx="4" fill="white"/>
<rect opacity="0.1" x="60" y="26" width="29" height="29" rx="4" fill="#CCE5FF"/>
<rect x="96" y="25" width="31" height="31" rx="5" fill="#999999" stroke="#0B76E0" stroke-width="2"/>
<rect opacity="0.1" x="134" y="26" width="29" height="29" rx="4" fill="#666666"/>
<rect opacity="0.1" x="171" y="26" width="29" height="29" rx="4" fill="#333333"/>
<rect opacity="0.1" x="208" y="26" width="29" height="29" rx="4" fill="black"/>
<path d="M141.224 86.3936C140.829 85.1311 142.143 84.0132 143.326 84.6045L154.27 90.0762C155.555 90.7192 155.277 92.5993 153.92 92.8838L153.785 92.9062L149.631 93.4248C149.477 93.4441 149.342 93.5338 149.264 93.665L149.233 93.7246L147.525 97.709C146.994 98.9494 145.245 98.8998 144.759 97.6865L144.716 97.5654L141.224 86.3936Z" fill="black" stroke="white"/>
</svg>
