<svg width="260" height="312" viewBox="0 0 260 312" fill="none" xmlns="http://www.w3.org/2000/svg">
<mask id="path-1-inside-1_568_7347" fill="white">
<path d="M15 80C15 77.7909 16.7909 76 19 76H241C243.209 76 245 77.7909 245 80V91H15V80Z"/>
</mask>
<path d="M15 80C15 77.7909 16.7909 76 19 76H241C243.209 76 245 77.7909 245 80V91H15V80Z" fill="#313131"/>
<path d="M15 76H245H15ZM245 91.5H15V90.5H245V91.5ZM15 91V76V91ZM245 76V91V76Z" fill="#616161" mask="url(#path-1-inside-1_568_7347)"/>
<rect x="15" y="91" width="230" height="145" rx="4" fill="#1D1E20"/>
<mask id="path-4-inside-2_568_7347" fill="white">
<path d="M15 91H54V236H19C16.7909 236 15 234.209 15 232V91Z"/>
</mask>
<path d="M15 91H54V236H19C16.7909 236 15 234.209 15 232V91Z" fill="#313131"/>
<path d="M15 91H54H15ZM54 236H15H54ZM15 236V91V236ZM54.5 91V236H53.5V91H54.5Z" fill="#616161" mask="url(#path-4-inside-2_568_7347)"/>
<mask id="path-6-inside-3_568_7347" fill="white">
<path d="M206 91H245V232C245 234.209 243.209 236 241 236H206V91Z"/>
</mask>
<path d="M206 91H245V232C245 234.209 243.209 236 241 236H206V91Z" fill="#313131"/>
<path d="M206 91H245H206ZM245 236H206H245ZM205.5 236V91H206.5V236H205.5ZM245 91V236V91Z" fill="#616161" mask="url(#path-6-inside-3_568_7347)"/>
<circle cx="22.5" cy="83.5" r="2.5" fill="#FF0000"/>
<circle cx="29.5" cy="83.5" r="2.5" fill="#CCCCCC"/>
<circle cx="36.5" cy="83.5" r="2.5" fill="#00FF00"/>
<rect x="66.9727" y="107.515" width="13.3333" height="29.0909" transform="rotate(90 66.9727 107.515)" fill="white"/>
<rect x="66.9727" y="126.909" width="13.3333" height="29.0909" transform="rotate(90 66.9727 126.909)" fill="#FFB3B4"/>
<rect x="66.9727" y="146.303" width="13.3333" height="29.0909" transform="rotate(90 66.9727 146.303)" fill="#FC7E80"/>
<rect x="66.9727" y="165.697" width="13.3333" height="29.0909" transform="rotate(90 66.9727 165.697)" fill="#F0181C"/>
<rect x="66.9727" y="185.091" width="13.3333" height="29.0909" transform="rotate(90 66.9727 185.091)" fill="#CC0003"/>
<rect x="66.9727" y="204.485" width="13.3333" height="29.0909" transform="rotate(90 66.9727 204.485)" fill="black"/>
<rect x="105.758" y="107.515" width="13.3333" height="29.0909" transform="rotate(90 105.758 107.515)" fill="white"/>
<rect x="105.758" y="126.909" width="13.3333" height="29.0909" transform="rotate(90 105.758 126.909)" fill="#B3FFB3"/>
<rect x="105.758" y="146.303" width="13.3333" height="29.0909" transform="rotate(90 105.758 146.303)" fill="#7EFC7E"/>
<rect x="105.758" y="165.697" width="13.3333" height="29.0909" transform="rotate(90 105.758 165.697)" fill="#18F018"/>
<rect x="105.758" y="185.091" width="13.3333" height="29.0909" transform="rotate(90 105.758 185.091)" fill="#00CC00"/>
<rect x="105.758" y="204.485" width="13.3333" height="29.0909" transform="rotate(90 105.758 204.485)" fill="black"/>
<rect x="144.547" y="107.515" width="13.3333" height="29.0909" transform="rotate(90 144.547 107.515)" fill="white"/>
<rect x="144.547" y="126.909" width="13.3333" height="29.0909" transform="rotate(90 144.547 126.909)" fill="#C5C5C5"/>
<rect x="144.547" y="146.303" width="13.3333" height="29.0909" transform="rotate(90 144.547 146.303)" fill="#8D8D8D"/>
<rect x="144.547" y="165.697" width="13.3333" height="29.0909" transform="rotate(90 144.547 165.697)" fill="#6F6F6F"/>
<rect x="144.547" y="185.091" width="13.3333" height="29.0909" transform="rotate(90 144.547 185.091)" fill="#383838"/>
<rect x="144.547" y="204.485" width="13.3333" height="29.0909" transform="rotate(90 144.547 204.485)" fill="black"/>
<rect x="183.336" y="107.515" width="13.3333" height="29.0909" transform="rotate(90 183.336 107.515)" fill="white"/>
<rect x="183.336" y="126.909" width="13.3333" height="29.0909" transform="rotate(90 183.336 126.909)" fill="#FFB3FF"/>
<rect x="183.336" y="146.303" width="13.3333" height="29.0909" transform="rotate(90 183.336 146.303)" fill="#FC7EFC"/>
<rect x="183.336" y="165.697" width="13.3333" height="29.0909" transform="rotate(90 183.336 165.697)" fill="#F018F0"/>
<rect x="183.336" y="185.091" width="13.3333" height="29.0909" transform="rotate(90 183.336 185.091)" fill="#CC00CC"/>
<rect x="183.336" y="204.485" width="13.3333" height="29.0909" transform="rotate(90 183.336 204.485)" fill="black"/>
<rect x="222.121" y="107.515" width="13.3333" height="29.0909" transform="rotate(90 222.121 107.515)" fill="white"/>
<rect x="222.121" y="126.909" width="13.3333" height="29.0909" transform="rotate(90 222.121 126.909)" fill="#B3D9FF"/>
<rect x="222.121" y="146.303" width="13.3333" height="29.0909" transform="rotate(90 222.121 146.303)" fill="#7EBDFC"/>
<rect x="222.121" y="165.697" width="13.3333" height="29.0909" transform="rotate(90 222.121 165.697)" fill="#1884F0"/>
<rect x="222.121" y="185.091" width="13.3333" height="29.0909" transform="rotate(90 222.121 185.091)" fill="#0065CC"/>
<rect x="222.121" y="204.485" width="13.3333" height="29.0909" transform="rotate(90 222.121 204.485)" fill="black"/>
</svg>
