<svg width="260" height="312" viewBox="0 0 260 312" fill="none" xmlns="http://www.w3.org/2000/svg">
<circle cx="229" cy="282" r="5" fill="black"/>
<circle cx="207" cy="282" r="5" fill="black"/>
<circle cx="185" cy="282" r="5" fill="black"/>
<circle cx="163" cy="282" r="5" fill="black"/>
<circle cx="141" cy="282" r="5" fill="black"/>
<circle cx="119" cy="282" r="5" fill="black"/>
<circle cx="97" cy="282" r="5" fill="black"/>
<circle cx="75" cy="282" r="5" fill="black"/>
<circle cx="53" cy="282" r="5" fill="black"/>
<circle cx="31" cy="282" r="5" fill="black"/>
<circle cx="229" cy="260" r="5" fill="#000D1A"/>
<circle cx="207" cy="260" r="5" fill="#030E1A"/>
<circle cx="185" cy="260" r="5" fill="#050F1A"/>
<circle cx="163" cy="260" r="5" fill="#08111A"/>
<circle cx="141" cy="260" r="5" fill="#0A121A"/>
<circle cx="119" cy="260" r="5" fill="#0F141A"/>
<circle cx="97" cy="260" r="5" fill="#12161A"/>
<circle cx="75" cy="260" r="5" fill="#14171A"/>
<circle cx="53" cy="260" r="5" fill="#17181A"/>
<circle cx="31" cy="260" r="5" fill="#1A1A1A"/>
<circle cx="229" cy="238" r="5" fill="#001A33"/>
<circle cx="207" cy="238" r="5" fill="#051C33"/>
<circle cx="185" cy="238" r="5" fill="#0A1F33"/>
<circle cx="163" cy="238" r="5" fill="#0F2133"/>
<circle cx="141" cy="238" r="5" fill="#142433"/>
<circle cx="119" cy="238" r="5" fill="#1F2933"/>
<circle cx="97" cy="238" r="5" fill="#242B33"/>
<circle cx="75" cy="238" r="5" fill="#292E33"/>
<circle cx="53" cy="238" r="5" fill="#2E3033"/>
<circle cx="31" cy="238" r="5" fill="#333333"/>
<circle cx="229" cy="216" r="5" fill="#00264D"/>
<circle cx="207" cy="216" r="5" fill="#082A4D"/>
<circle cx="185" cy="216" r="5" fill="#0F2E4D"/>
<circle cx="163" cy="216" r="5" fill="#17324D"/>
<circle cx="141" cy="216" r="5" fill="#1F364D"/>
<circle cx="119" cy="216" r="5" fill="#2E3D4D"/>
<circle cx="97" cy="216" r="5" fill="#36414D"/>
<circle cx="75" cy="216" r="5" fill="#3E454D"/>
<circle cx="53" cy="216" r="5" fill="#45494D"/>
<circle cx="31" cy="216" r="5" fill="#4D4D4D"/>
<circle cx="229" cy="194" r="5" fill="#003266"/>
<circle cx="207" cy="194" r="5" fill="#0A3866"/>
<circle cx="185" cy="194" r="5" fill="#143D66"/>
<circle cx="163" cy="194" r="5" fill="#1F4266"/>
<circle cx="141" cy="194" r="5" fill="#294766"/>
<circle cx="119" cy="194" r="5" fill="#3D5166"/>
<circle cx="97" cy="194" r="5" fill="#475766"/>
<circle cx="75" cy="194" r="5" fill="#525C66"/>
<circle cx="53" cy="194" r="5" fill="#5C6166"/>
<circle cx="31" cy="194" r="5" fill="#666666"/>
<circle cx="229" cy="172" r="5" fill="#004C99"/>
<circle cx="207" cy="172" r="5" fill="#0F5399"/>
<circle cx="185" cy="172" r="5" fill="#1F5B99"/>
<circle cx="163" cy="172" r="5" fill="#2E6399"/>
<circle cx="141" cy="172" r="5" fill="#3D6B99"/>
<circle cx="119" cy="172" r="5" fill="#5C7A99"/>
<circle cx="97" cy="172" r="5" fill="#6B8299"/>
<circle cx="75" cy="172" r="5" fill="#7A8A99"/>
<circle cx="53" cy="172" r="5" fill="#8A9199"/>
<circle cx="31" cy="172" r="5" fill="#999999"/>
<circle cx="229" cy="150" r="5" fill="#0058B3"/>
<circle cx="207" cy="150" r="5" fill="#1261B3"/>
<circle cx="185" cy="150" r="5" fill="#246AB3"/>
<circle cx="163" cy="150" r="5" fill="#3673B3"/>
<circle cx="141" cy="150" r="5" fill="#477CB3"/>
<circle cx="119" cy="150" r="5" fill="#6B8EB3"/>
<circle cx="97" cy="150" r="5" fill="#7D97B3"/>
<circle cx="75" cy="150" r="5" fill="#8FA0B3"/>
<circle cx="53" cy="150" r="5" fill="#A1A9B3"/>
<circle cx="31" cy="150" r="5" fill="#B3B3B3"/>
<circle cx="229" cy="128" r="5" fill="#0065CC"/>
<circle cx="207" cy="128" r="5" fill="#146FCC"/>
<circle cx="185" cy="128" r="5" fill="#2979CC"/>
<circle cx="163" cy="128" r="5" fill="#3D84CC"/>
<circle cx="141" cy="128" r="5" fill="#528ECC"/>
<circle cx="119" cy="128" r="5" fill="#7AA3CC"/>
<circle cx="97" cy="128" r="5" fill="#8FADCC"/>
<circle cx="75" cy="128" r="5" fill="#A3B7CC"/>
<circle cx="53" cy="128" r="5" fill="#B8C2CC"/>
<circle cx="31" cy="128" r="5" fill="#CCCCCC"/>
<circle cx="229" cy="106" r="5" fill="#0071E6"/>
<circle cx="207" cy="106" r="5" fill="#177DE6"/>
<circle cx="185" cy="106" r="5" fill="#2E89E6"/>
<circle cx="163" cy="106" r="5" fill="#4594E6"/>
<circle cx="141" cy="106" r="5" fill="#5CA0E6"/>
<circle cx="119" cy="106" r="5" fill="#8AB7E6"/>
<circle cx="97" cy="106" r="5" fill="#A1C3E6"/>
<circle cx="75" cy="106" r="5" fill="#B8CEE6"/>
<circle cx="53" cy="106" r="5" fill="#CFDAE6"/>
<circle cx="31" cy="106" r="5" fill="#E6E6E6"/>
<circle cx="229" cy="84" r="5" fill="#0080FF"/>
<circle cx="207" cy="84" r="5" fill="#1A8CFF"/>
<circle cx="185" cy="84" r="5" fill="#3399FF"/>
<circle cx="163" cy="84" r="5" fill="#4DA6FF"/>
<circle cx="141" cy="84" r="5" fill="#66B3FF"/>
<circle cx="119" cy="84" r="5" fill="#99CCFF"/>
<circle cx="97" cy="84" r="5" fill="#B3D9FF"/>
<circle cx="75" cy="84" r="5" fill="#CCE6FF"/>
<circle cx="53" cy="84" r="5" fill="#E6F2FF"/>
<circle cx="31" cy="84" r="5" fill="white"/>
<rect x="23" y="26" width="29" height="29" rx="4" fill="white"/>
<rect x="60" y="26" width="29" height="29" rx="4" fill="#B3D9FF"/>
<rect x="97" y="26" width="29" height="29" rx="4" fill="#7EBDFC"/>
<rect x="134" y="26" width="29" height="29" rx="4" fill="#666666"/>
<rect x="171" y="26" width="29" height="29" rx="4" fill="#333333"/>
<rect x="208" y="26" width="29" height="29" rx="4" fill="black"/>
<path d="M118.224 52.3936C117.829 51.1311 119.143 50.0132 120.326 50.6045L131.27 56.0762C132.555 56.7192 132.277 58.5993 130.92 58.8838L130.785 58.9062L126.631 59.4248C126.477 59.4441 126.342 59.5338 126.264 59.665L126.233 59.7246L124.525 63.709C123.994 64.9494 122.245 64.8998 121.759 63.6865L121.716 63.5654L118.224 52.3936Z" fill="black" stroke="white"/>
</svg>
