<svg width="260" height="312" viewBox="0 0 260 312" fill="none" xmlns="http://www.w3.org/2000/svg">
<circle cx="229" cy="282" r="5" fill="#1F1F1F"/>
<circle cx="207" cy="282" r="5" fill="#1F1F1F"/>
<circle cx="185" cy="282" r="5" fill="#1F1F1F"/>
<circle cx="163" cy="282" r="5" fill="#1F1F1F"/>
<circle cx="141" cy="282" r="5" fill="#1F1F1F"/>
<circle cx="119" cy="282" r="5" fill="#1F1F1F"/>
<circle cx="97" cy="282" r="5" fill="#1F1F1F"/>
<circle cx="75" cy="282" r="5" fill="black"/>
<circle cx="53" cy="282" r="5" fill="#1F1F1F"/>
<circle cx="31" cy="282" r="5" fill="#1F1F1F"/>
<circle cx="229" cy="260" r="5" fill="#1F1F1F"/>
<circle cx="207" cy="260" r="5" fill="#1F1F1F"/>
<circle cx="185" cy="260" r="5" fill="#1F1F1F"/>
<circle cx="163" cy="260" r="5" fill="#1F1F1F"/>
<circle cx="141" cy="260" r="5" fill="#1F1F1F"/>
<circle cx="119" cy="260" r="5" fill="#1F1F1F"/>
<circle cx="97" cy="260" r="5" fill="#12161A"/>
<circle cx="75" cy="260" r="5" fill="#1F1F1F"/>
<circle cx="53" cy="260" r="5" fill="#1F1F1F"/>
<circle cx="31" cy="260" r="5" fill="#1F1F1F"/>
<circle cx="229" cy="238" r="5" fill="#1F1F1F"/>
<circle cx="207" cy="238" r="5" fill="#1F1F1F"/>
<circle cx="185" cy="238" r="5" fill="#1F1F1F"/>
<circle cx="163" cy="238" r="5" fill="#1F1F1F"/>
<circle cx="141" cy="238" r="5" fill="#1F1F1F"/>
<circle cx="119" cy="238" r="5" fill="#1F2933"/>
<circle cx="97" cy="238" r="5" fill="#1F1F1F"/>
<circle cx="75" cy="238" r="5" fill="#1F1F1F"/>
<circle cx="53" cy="238" r="5" fill="#1F1F1F"/>
<circle cx="31" cy="238" r="5" fill="#1F1F1F"/>
<circle cx="229" cy="216" r="5" fill="#1F1F1F"/>
<circle cx="207" cy="216" r="5" fill="#1F1F1F"/>
<circle cx="185" cy="216" r="5" fill="#1F1F1F"/>
<circle cx="163" cy="216" r="5" fill="#1F1F1F"/>
<circle cx="141" cy="216" r="5" fill="#1F364D"/>
<circle cx="119" cy="216" r="5" fill="#1F1F1F"/>
<circle cx="97" cy="216" r="5" fill="#1F1F1F"/>
<circle cx="75" cy="216" r="5" fill="#1F1F1F"/>
<circle cx="53" cy="216" r="5" fill="#1F1F1F"/>
<circle cx="31" cy="216" r="5" fill="#1F1F1F"/>
<circle cx="229" cy="194" r="5" fill="#1F1F1F"/>
<circle cx="207" cy="194" r="5" fill="#1F1F1F"/>
<circle cx="185" cy="194" r="5" fill="#1F1F1F"/>
<circle cx="163" cy="194" r="5" fill="#1F4266"/>
<circle cx="141" cy="194" r="5" fill="#1F1F1F"/>
<circle cx="119" cy="194" r="5" fill="#1F1F1F"/>
<circle cx="97" cy="194" r="5" fill="#1F1F1F"/>
<circle cx="75" cy="194" r="5" fill="#1F1F1F"/>
<circle cx="53" cy="194" r="5" fill="#1F1F1F"/>
<circle cx="31" cy="194" r="5" fill="#1F1F1F"/>
<circle cx="229" cy="172" r="5" fill="#1F1F1F"/>
<circle cx="207" cy="172" r="5" fill="#1F1F1F"/>
<circle cx="185" cy="172" r="5" fill="#1F5B99"/>
<circle cx="163" cy="172" r="5" fill="#1F1F1F"/>
<circle cx="141" cy="172" r="5" fill="#1F1F1F"/>
<circle cx="119" cy="172" r="5" fill="#1F1F1F"/>
<circle cx="97" cy="172" r="5" fill="#1F1F1F"/>
<circle cx="75" cy="172" r="5" fill="#1F1F1F"/>
<circle cx="53" cy="172" r="5" fill="#1F1F1F"/>
<circle cx="31" cy="172" r="5" fill="#1F1F1F"/>
<circle cx="229" cy="150" r="5" fill="#1F1F1F"/>
<circle cx="207" cy="150" r="5" fill="#1261B3"/>
<circle cx="185" cy="150" r="5" fill="#1F1F1F"/>
<circle cx="163" cy="150" r="5" fill="#1F1F1F"/>
<circle cx="141" cy="150" r="5" fill="#1F1F1F"/>
<circle cx="119" cy="150" r="5" fill="#1F1F1F"/>
<circle cx="97" cy="150" r="5" fill="#1F1F1F"/>
<circle cx="75" cy="150" r="5" fill="#1F1F1F"/>
<circle cx="53" cy="150" r="5" fill="#1F1F1F"/>
<circle cx="31" cy="150" r="5" fill="#1F1F1F"/>
<circle cx="229" cy="128" r="5" fill="#0065CC"/>
<circle cx="207" cy="128" r="5" fill="#1F1F1F"/>
<circle cx="185" cy="128" r="5" fill="#1F1F1F"/>
<circle cx="163" cy="128" r="5" fill="#1F1F1F"/>
<circle cx="141" cy="128" r="5" fill="#1F1F1F"/>
<circle cx="119" cy="128" r="5" fill="#1F1F1F"/>
<circle cx="97" cy="128" r="5" fill="#1F1F1F"/>
<circle cx="75" cy="128" r="5" fill="#1F1F1F"/>
<circle cx="53" cy="128" r="5" fill="#1F1F1F"/>
<circle cx="31" cy="128" r="5" fill="#1F1F1F"/>
<circle cx="229" cy="106" r="5" fill="#1F1F1F"/>
<circle cx="207" cy="106" r="5" fill="#1F1F1F"/>
<circle cx="185" cy="106" r="5" fill="#1F1F1F"/>
<circle cx="163" cy="106" r="5" fill="#1F1F1F"/>
<circle cx="141" cy="106" r="5" fill="#1F1F1F"/>
<circle cx="119" cy="106" r="5" fill="#1F1F1F"/>
<circle cx="97" cy="106" r="5" fill="#1F1F1F"/>
<circle cx="75" cy="106" r="5" fill="#1F1F1F"/>
<circle cx="53" cy="106" r="5" fill="#1F1F1F"/>
<circle cx="31" cy="106" r="5" fill="#1F1F1F"/>
<circle cx="229" cy="84" r="5" fill="#1F1F1F"/>
<circle cx="207" cy="84" r="5" fill="#1F1F1F"/>
<circle cx="185" cy="84" r="5" fill="#1F1F1F"/>
<circle cx="163" cy="84" r="5" fill="#1F1F1F"/>
<circle cx="141" cy="84" r="5" fill="#1F1F1F"/>
<circle cx="119" cy="84" r="5" fill="#1F1F1F"/>
<circle cx="97" cy="84" r="5" fill="#1F1F1F"/>
<circle cx="75" cy="84" r="5" fill="#1F1F1F"/>
<circle cx="53" cy="84" r="5" fill="#1F1F1F"/>
<circle cx="31" cy="84" r="5" fill="#1F1F1F"/>
<rect opacity="0.1" x="23" y="26" width="29" height="29" rx="4" fill="white"/>
<rect opacity="0.1" x="60" y="26" width="29" height="29" rx="4" fill="#B3D9FF"/>
<rect opacity="0.1" x="97" y="26" width="29" height="29" rx="4" fill="#7EBDFC"/>
<rect opacity="0.1" x="134" y="26" width="29" height="29" rx="4" fill="#1884F0"/>
<rect x="170" y="25" width="31" height="31" rx="5" fill="#333333" stroke="#0B76E0" stroke-width="2"/>
<rect opacity="0.1" x="208" y="26" width="29" height="29" rx="4" fill="black"/>
<path d="M229.224 130.394C228.829 129.131 230.143 128.013 231.326 128.604L242.27 134.076C243.555 134.719 243.277 136.599 241.92 136.884L241.785 136.906L237.631 137.425C237.477 137.444 237.342 137.534 237.264 137.665L237.233 137.725L235.525 141.709C234.994 142.949 233.245 142.9 232.759 141.687L232.716 141.565L229.224 130.394Z" fill="black" stroke="white"/>
</svg>
