<svg width="260" height="312" viewBox="0 0 260 312" fill="none" xmlns="http://www.w3.org/2000/svg">
<circle cx="229" cy="282" r="5" fill="#1F1F1F"/>
<circle cx="207" cy="282" r="5" fill="#1F1F1F"/>
<circle cx="185" cy="282" r="5" fill="#1F1F1F"/>
<circle cx="163" cy="282" r="5" fill="#1F1F1F"/>
<circle cx="141" cy="282" r="5" fill="#1F1F1F"/>
<circle cx="119" cy="282" r="5" fill="#1F1F1F"/>
<circle cx="97" cy="282" r="5" fill="#1F1F1F"/>
<circle cx="75" cy="282" r="5" fill="#1F1F1F"/>
<circle cx="53" cy="282" r="5" fill="#1F1F1F"/>
<circle cx="31" cy="282" r="5" fill="#1F1F1F"/>
<circle cx="229" cy="260" r="5" fill="#1F1F1F"/>
<circle cx="207" cy="260" r="5" fill="#1F1F1F"/>
<circle cx="185" cy="260" r="5" fill="#1F1F1F"/>
<circle cx="163" cy="260" r="5" fill="#1F1F1F"/>
<circle cx="141" cy="260" r="5" fill="#1F1F1F"/>
<circle cx="119" cy="260" r="5" fill="#1F1F1F"/>
<circle cx="97" cy="260" r="5" fill="#1F1F1F"/>
<circle cx="75" cy="260" r="5" fill="#1F1F1F"/>
<circle cx="53" cy="260" r="5" fill="#1F1F1F"/>
<circle cx="31" cy="260" r="5" fill="#1A1A1A"/>
<circle cx="229" cy="238" r="5" fill="#1F1F1F"/>
<circle cx="207" cy="238" r="5" fill="#1F1F1F"/>
<circle cx="185" cy="238" r="5" fill="#1F1F1F"/>
<circle cx="163" cy="238" r="5" fill="#1F1F1F"/>
<circle cx="141" cy="238" r="5" fill="#1F1F1F"/>
<circle cx="119" cy="238" r="5" fill="#1F1F1F"/>
<circle cx="97" cy="238" r="5" fill="#1F1F1F"/>
<circle cx="75" cy="238" r="5" fill="#1F1F1F"/>
<circle cx="53" cy="238" r="5" fill="#2E3033"/>
<circle cx="31" cy="238" r="5" fill="#1F1F1F"/>
<circle cx="229" cy="216" r="5" fill="#1F1F1F"/>
<circle cx="207" cy="216" r="5" fill="#1F1F1F"/>
<circle cx="185" cy="216" r="5" fill="#1F1F1F"/>
<circle cx="163" cy="216" r="5" fill="#1F1F1F"/>
<circle cx="141" cy="216" r="5" fill="#1F1F1F"/>
<circle cx="119" cy="216" r="5" fill="#1F1F1F"/>
<circle cx="97" cy="216" r="5" fill="#1F1F1F"/>
<circle cx="75" cy="216" r="5" fill="#3E454D"/>
<circle cx="53" cy="216" r="5" fill="#1F1F1F"/>
<circle cx="31" cy="216" r="5" fill="#1F1F1F"/>
<circle cx="229" cy="194" r="5" fill="#1F1F1F"/>
<circle cx="207" cy="194" r="5" fill="#1F1F1F"/>
<circle cx="185" cy="194" r="5" fill="#1F1F1F"/>
<circle cx="163" cy="194" r="5" fill="#1F1F1F"/>
<circle cx="141" cy="194" r="5" fill="#1F1F1F"/>
<circle cx="119" cy="194" r="5" fill="#1F1F1F"/>
<circle cx="97" cy="194" r="5" fill="#475766"/>
<circle cx="75" cy="194" r="5" fill="#1F1F1F"/>
<circle cx="53" cy="194" r="5" fill="#1F1F1F"/>
<circle cx="31" cy="194" r="5" fill="#1F1F1F"/>
<circle cx="229" cy="172" r="5" fill="#1F1F1F"/>
<circle cx="207" cy="172" r="5" fill="#1F1F1F"/>
<circle cx="185" cy="172" r="5" fill="#1F1F1F"/>
<circle cx="163" cy="172" r="5" fill="#1F1F1F"/>
<circle cx="141" cy="172" r="5" fill="#1F1F1F"/>
<circle cx="119" cy="172" r="5" fill="#5C7A99"/>
<circle cx="97" cy="172" r="5" fill="#1F1F1F"/>
<circle cx="75" cy="172" r="5" fill="#1F1F1F"/>
<circle cx="53" cy="172" r="5" fill="#1F1F1F"/>
<circle cx="31" cy="172" r="5" fill="#1F1F1F"/>
<circle cx="229" cy="150" r="5" fill="#1F1F1F"/>
<circle cx="207" cy="150" r="5" fill="#1F1F1F"/>
<circle cx="185" cy="150" r="5" fill="#1F1F1F"/>
<circle cx="163" cy="150" r="5" fill="#1F1F1F"/>
<circle cx="141" cy="150" r="5" fill="#477CB3"/>
<circle cx="119" cy="150" r="5" fill="#1F1F1F"/>
<circle cx="97" cy="150" r="5" fill="#1F1F1F"/>
<circle cx="75" cy="150" r="5" fill="#1F1F1F"/>
<circle cx="53" cy="150" r="5" fill="#1F1F1F"/>
<circle cx="31" cy="150" r="5" fill="#1F1F1F"/>
<circle cx="229" cy="128" r="5" fill="#1F1F1F"/>
<circle cx="207" cy="128" r="5" fill="#1F1F1F"/>
<circle cx="185" cy="128" r="5" fill="#1F1F1F"/>
<circle cx="163" cy="128" r="5" fill="#3D84CC"/>
<circle cx="141" cy="128" r="5" fill="#1F1F1F"/>
<circle cx="119" cy="128" r="5" fill="#1F1F1F"/>
<circle cx="97" cy="128" r="5" fill="#1F1F1F"/>
<circle cx="75" cy="128" r="5" fill="#1F1F1F"/>
<circle cx="53" cy="128" r="5" fill="#1F1F1F"/>
<circle cx="31" cy="128" r="5" fill="#1F1F1F"/>
<circle cx="229" cy="106" r="5" fill="#1F1F1F"/>
<circle cx="207" cy="106" r="5" fill="#1F1F1F"/>
<circle cx="185" cy="106" r="5" fill="#2E89E6"/>
<circle cx="163" cy="106" r="5" fill="#1F1F1F"/>
<circle cx="141" cy="106" r="5" fill="#1F1F1F"/>
<circle cx="119" cy="106" r="5" fill="#1F1F1F"/>
<circle cx="97" cy="106" r="5" fill="#1F1F1F"/>
<circle cx="75" cy="106" r="5" fill="#1F1F1F"/>
<circle cx="53" cy="106" r="5" fill="#1F1F1F"/>
<circle cx="31" cy="106" r="5" fill="#1F1F1F"/>
<circle cx="229" cy="84" r="5" fill="#1F1F1F"/>
<circle cx="207" cy="84" r="5" fill="#1A8CFF"/>
<circle cx="185" cy="84" r="5" fill="#1F1F1F"/>
<circle cx="163" cy="84" r="5" fill="#1F1F1F"/>
<circle cx="141" cy="84" r="5" fill="#1F1F1F"/>
<circle cx="119" cy="84" r="5" fill="#1F1F1F"/>
<circle cx="97" cy="84" r="5" fill="#1F1F1F"/>
<circle cx="75" cy="84" r="5" fill="#1F1F1F"/>
<circle cx="53" cy="84" r="5" fill="#1F1F1F"/>
<circle cx="31" cy="84" r="5" fill="#1F1F1F"/>
<rect opacity="0.1" x="23" y="26" width="29" height="29" rx="4" fill="white"/>
<rect opacity="0.1" x="60" y="26" width="29" height="29" rx="4" fill="#B3D9FF"/>
<rect opacity="0.1" x="97" y="26" width="29" height="29" rx="4" fill="#7EBDFC"/>
<rect x="133" y="25" width="31" height="31" rx="5" fill="#666666" stroke="#0B76E0" stroke-width="2"/>
<rect opacity="0.1" x="171" y="26" width="29" height="29" rx="4" fill="#333333"/>
<rect opacity="0.1" x="208" y="26" width="29" height="29" rx="4" fill="black"/>
<path d="M207.224 86.3936C206.829 85.1311 208.143 84.0132 209.326 84.6045L220.27 90.0762C221.555 90.7192 221.277 92.5993 219.92 92.8838L219.785 92.9062L215.631 93.4248C215.477 93.4441 215.342 93.5338 215.264 93.665L215.233 93.7246L213.525 97.709C212.994 98.9494 211.245 98.8998 210.759 97.6865L210.716 97.5654L207.224 86.3936Z" fill="black" stroke="white"/>
</svg>
