<svg width="260" height="312" viewBox="0 0 260 312" fill="none" xmlns="http://www.w3.org/2000/svg">
<rect x="208" y="231" width="29" height="29" rx="4" fill="black"/>
<rect x="171" y="231" width="29" height="29" rx="4" fill="#CC0003"/>
<rect x="134" y="231" width="29" height="29" rx="4" fill="#F0181C"/>
<rect x="97" y="231" width="29" height="29" rx="4" fill="#FC7E80"/>
<rect x="60" y="231" width="29" height="29" rx="4" fill="#FFB3B4"/>
<rect x="23" y="231" width="29" height="29" rx="4" fill="white"/>
<rect x="208" y="186" width="29" height="29" rx="4" fill="black"/>
<rect x="171" y="186" width="29" height="29" rx="4" fill="#00CC00"/>
<rect x="134" y="186" width="29" height="29" rx="4" fill="#18F018"/>
<rect x="97" y="186" width="29" height="29" rx="4" fill="#7EFC7E"/>
<rect x="60" y="186" width="29" height="29" rx="4" fill="#B3FFB3"/>
<rect x="23" y="186" width="29" height="29" rx="4" fill="white"/>
<rect x="208" y="141" width="29" height="29" rx="4" fill="black"/>
<rect x="171" y="141" width="29" height="29" rx="4" fill="#383838"/>
<rect x="134" y="141" width="29" height="29" rx="4" fill="#6F6F6F"/>
<rect x="97" y="141" width="29" height="29" rx="4" fill="#8D8D8D"/>
<rect x="60" y="141" width="29" height="29" rx="4" fill="#C5C5C5"/>
<rect x="23" y="141" width="29" height="29" rx="4" fill="white"/>
<rect x="208" y="96" width="29" height="29" rx="4" fill="black"/>
<rect x="171" y="96" width="29" height="29" rx="4" fill="#CC00CC"/>
<rect x="134" y="96" width="29" height="29" rx="4" fill="#F018F0"/>
<rect x="97" y="96" width="29" height="29" rx="4" fill="#FC7EFC"/>
<rect x="60" y="96" width="29" height="29" rx="4" fill="#FFB3FF"/>
<rect x="23" y="96" width="29" height="29" rx="4" fill="white"/>
<rect x="23" y="51" width="29" height="29" rx="4" fill="white"/>
<rect x="60" y="51" width="29" height="29" rx="4" fill="#B3D9FF"/>
<rect x="97" y="51" width="29" height="29" rx="4" fill="#7EBDFC"/>
<rect x="134" y="51" width="29" height="29" rx="4" fill="#1884F0"/>
<rect x="171" y="51" width="29" height="29" rx="4" fill="#0065CC"/>
<rect x="208" y="51" width="29" height="29" rx="4" fill="black"/>
</svg>
